<?xml version="1.0" encoding="UTF-8" standalone="no"?>
<svg
   xmlns:dc="http://purl.org/dc/elements/1.1/"
   xmlns:cc="http://creativecommons.org/ns#"
   xmlns:rdf="http://www.w3.org/1999/02/22-rdf-syntax-ns#"
   xmlns:svg="http://www.w3.org/2000/svg"
   xmlns="http://www.w3.org/2000/svg"
   xmlns:sodipodi="http://sodipodi.sourceforge.net/DTD/sodipodi-0.dtd"
   xmlns:inkscape="http://www.inkscape.org/namespaces/inkscape"
   width="210mm"
   height="297mm"
   viewBox="0 0 210 297"
   version="1.1"
   id="svg8"
   inkscape:version="1.0.2-2 (e86c870879, 2021-01-15)"
   sodipodi:docname="desenh03.svg"
   inkscape:export-filename="desenh03.png"
   inkscape:export-xdpi="96"
   inkscape:export-ydpi="96">
  <defs
     id="defs2" />
  <sodipodi:namedview
     id="base"
     pagecolor="#ffffff"
     bordercolor="#666666"
     borderopacity="1.0"
     inkscape:pageopacity="0.0"
     inkscape:pageshadow="2"
     inkscape:zoom="0.7"
     inkscape:cx="-58.954563"
     inkscape:cy="491.06702"
     inkscape:document-units="mm"
     inkscape:current-layer="layer1"
     inkscape:document-rotation="0"
     showgrid="false"
     inkscape:window-width="1920"
     inkscape:window-height="1001"
     inkscape:window-x="-9"
     inkscape:window-y="-9"
     inkscape:window-maximized="1" />
  <metadata
     id="metadata5">
    <rdf:RDF>
      <cc:Work
         rdf:about="">
        <dc:format>image/svg+xml</dc:format>
        <dc:type
           rdf:resource="http://purl.org/dc/dcmitype/StillImage" />
        <dc:title></dc:title>
      </cc:Work>
    </rdf:RDF>
  </metadata>
  <g
     inkscape:label="Layer 1"
     id="layer1"
     inkscape:groupmode="layer">
    <path
       style="opacity:1;fill:#000000;fill-opacity:1;stroke:#000000;stroke-width:1;stroke-miterlimit:4;stroke-dasharray:none;stroke-opacity:1"
       d="m 98.830433,251.1875 c 10.689827,11.75797 27.462137,10.55756 27.261487,10.15625 4.47869,-0.53754 3.61184,-3.99083 2.6727,-7.48355 -1.20278,-2.07578 -4.31179,-3.77031 -8.01809,-5.34539 -8.75078,-1.99993 -15.06794,0.86737 -21.916097,2.67269 z"
       id="path1015"
       sodipodi:nodetypes="ccccc"
       inkscape:label="pé direito" />
    <path
       style="opacity:1;fill:#000000;fill-opacity:1;stroke:#000000;stroke-width:1;stroke-miterlimit:4;stroke-dasharray:none;stroke-opacity:1"
       d="m 69.031037,250.65298 c -10.689835,11.75797 -27.462145,10.55756 -27.261495,10.15625 -4.478689,-0.53754 -3.611839,-3.99083 -2.672689,-7.48355 1.20278,-2.07578 4.311779,-3.77031 8.018079,-5.34539 8.75078,-1.99993 15.067941,0.86737 21.916105,2.67269 z"
       id="path1017"
       sodipodi:nodetypes="ccccc"
       inkscape:label="pé esquerdo" />
    <rect
       style="opacity:0.803625;fill:#ffff00;fill-opacity:1;stroke:#000000;stroke-width:1.45;stroke-miterlimit:4;stroke-dasharray:none;stroke-opacity:1"
       id="rect28"
       width="103.16604"
       height="207.40115"
       x="32.072353"
       y="37.417736"
       ry="55.187191"
       inkscape:label="corpo" />
    <ellipse
       style="opacity:1;fill:#000000;fill-opacity:1;stroke-width:42.86;stroke-miterlimit:4;stroke-dasharray:none"
       id="path859"
       cx="82.05175"
       cy="89.000755"
       rx="28.063299"
       ry="28.33057"
       inkscape:label="óculos" />
    <rect
       style="opacity:1;fill:#000000;fill-opacity:1;stroke-width:0.264583"
       id="rect865"
       width="25.657875"
       height="6.4144688"
       x="32.072342"
       y="85.526245"
       ry="1.6036184"
       inkscape:label="perna do óculos" />
    <rect
       style="opacity:1;fill:#000000;fill-opacity:1;stroke-width:0.264583"
       id="rect867"
       width="25.657875"
       height="6.4144688"
       x="109.31324"
       y="86.060776"
       ry="1.6036184"
       inkscape:label="perna do óculos" />
    <circle
       style="opacity:1;fill:#fbfbfb;fill-opacity:1;stroke-width:0.264583"
       id="path871"
       cx="82.185379"
       cy="88.867111"
       r="19.109772"
       inkscape:label="olho branco" />
    <rect
       style="opacity:1;fill:#04a1ee;fill-opacity:1;stroke:#000000;stroke-width:1;stroke-miterlimit:4;stroke-dasharray:none;stroke-opacity:1"
       id="rect993"
       width="17.105249"
       height="21.648832"
       x="53.721176"
       y="228.2482"
       ry="1.6036184"
       inkscape:label="perna esquerda" />
    <rect
       style="opacity:1;fill:#04a1ee;fill-opacity:1;stroke:#000000;stroke-width:1;stroke-miterlimit:4;stroke-dasharray:none;stroke-opacity:1"
       id="rect997"
       width="17.105249"
       height="21.648832"
       x="96.751564"
       y="228.78271"
       ry="1.6036184"
       inkscape:label="perna direita" />
    <path
       style="opacity:1;fill:#04a1ee;fill-opacity:1;stroke:#000000;stroke-width:1.00787;stroke-miterlimit:4;stroke-dasharray:none;stroke-opacity:1"
       d="m 32.611639,188.16234 102.613771,0.80554 c -1.11298,26.54449 -9.86281,48.82777 -47.886421,54.77681 -26.439532,1.70685 -55.334365,-14.90378 -54.72735,-55.58235 z"
       id="path905"
       sodipodi:nodetypes="cccc"
       inkscape:label="cueca" />
    <ellipse
       style="opacity:1;fill:#000000;fill-opacity:1;stroke-width:0.285102"
       id="path875"
       cx="82.05175"
       cy="88.332581"
       rx="8.2853556"
       ry="8.4189901"
       inkscape:label="olho preto" />
    <path
       id="path897"
       style="opacity:1;fill:#04a2ec;fill-opacity:1;stroke:#000000;stroke-width:3.79306;stroke-miterlimit:4;stroke-dasharray:none;stroke-opacity:1"
       inkscape:label="macacão"
       transform="scale(0.26458333)"
       d="m 172.01367,612.16016 2.03516,154.54492 c -6.68602,22.07807 -23.20912,24.62424 -40.69727,25.2539 82.68329,187.9186 278.34302,161.33121 362.04492,19.32618 -0.2273,-0.11122 -0.3292,-0.15335 -0.58203,-0.27735 -1.53082,-0.7508 -2.04655,-5.48174 -2.00195,-7.01562 0.0272,-0.93438 0.17441,-1.86031 0.26172,-2.79102 0.15865,-1.42277 0.54573,-2.78385 1.00781,-4.12305 -14.19188,-2.3471 -30.1074,7.28382 -37.18359,-44.51367 l -9.15625,-137.375 z" />
    <path
       style="opacity:1;fill:#04a1ee;fill-opacity:1;stroke:#000000;stroke-width:1;stroke-miterlimit:4;stroke-dasharray:none;stroke-opacity:1"
       d="m 134.1693,153.67997 -21.38156,13.36348 1.60362,8.01808 19.51067,-12.29439 z"
       id="path899"
       inkscape:label="alça direita" />
    <path
       style="opacity:1;fill:#04a1ee;fill-opacity:1;stroke:#000000;stroke-width:1;stroke-miterlimit:4;stroke-dasharray:none;stroke-opacity:1"
       d="M 31.760388,152.34362 53.14195,165.7071 51.538333,173.72518 32.027658,161.43079 Z"
       id="path901"
       inkscape:label="alça esquerda" />
    <path
       style="opacity:1;fill:#04a1ee;fill-opacity:1;stroke:#000000;stroke-width:1;stroke-miterlimit:4;stroke-dasharray:none;stroke-opacity:1"
       d="m 70.559155,179.07058 h 21.381563 c 0.329993,6.9383 -0.991715,13.91541 -9.087164,16.03617 -10.740682,-0.56393 -12.921605,-6.94632 -12.294399,-16.03617 z"
       id="path903"
       sodipodi:nodetypes="cccc"
       inkscape:label="bolso" />
    <ellipse
       style="opacity:1;fill:#000000;fill-opacity:1;stroke:#000000;stroke-width:1;stroke-miterlimit:4;stroke-dasharray:none;stroke-opacity:1"
       id="path1001"
       cx="116.26225"
       cy="169.44888"
       rx="1.3363476"
       ry="1.6036172"
       inkscape:label="botão direito" />
    <ellipse
       style="opacity:1;fill:#000000;fill-opacity:1;stroke:#000000;stroke-width:1;stroke-miterlimit:4;stroke-dasharray:none;stroke-opacity:1"
       id="ellipse1003"
       cx="49.177597"
       cy="167.57799"
       rx="1.3363476"
       ry="1.6036172"
       inkscape:label="botão esquerdo" />
    <path
       style="opacity:1;fill:#ffff00;fill-opacity:1;stroke:#000000;stroke-width:1;stroke-miterlimit:4;stroke-dasharray:none;stroke-opacity:1"
       d="m 31.760388,152.34362 c -5.078121,4.19507 -10.156238,5.61689 -15.234368,17.10525 -3.97005,10.91799 9.03374,14.2443 15.501637,18.17432 l 0.534538,-11.22531 c -1.740415,3.5038 -2.329964,1.31171 -5.34539,-4.81086 1.692707,-3.96064 3.385414,-5.83616 5.078121,-4.81085 z"
       id="path1007"
       sodipodi:nodetypes="ccccccc"
       inkscape:label="mão esquerda" />
    <path
       style="opacity:1;fill:#ffff00;fill-opacity:1;stroke:#000000;stroke-width:1;stroke-miterlimit:4;stroke-dasharray:none;stroke-opacity:1"
       d="m 135.49268,153.68831 c 5.07812,4.19507 10.15624,5.61689 15.23437,17.10525 3.97005,10.91799 -9.03374,14.2443 -15.50164,18.17432 l -0.53454,-11.22531 c 1.74042,3.5038 2.32997,1.31171 5.34539,-4.81086 -1.69271,-3.96064 -3.38541,-5.83616 -5.07812,-4.81085 z"
       id="path1009"
       sodipodi:nodetypes="ccccccc"
       inkscape:label="mão direita" />
    <path
       style="opacity:1;fill:none;fill-opacity:1;stroke:#000000;stroke-width:1.34;stroke-miterlimit:4;stroke-dasharray:none;stroke-opacity:1"
       d="m 64.04795,140.88512 c 13.212162,-16.80368 26.730513,-14.77201 40.45596,0"
       id="path1027"
       sodipodi:nodetypes="cc"
       inkscape:label="boca" />
    <path
       style="opacity:1;fill:none;fill-opacity:1;stroke:#000000;stroke-width:0.969308;stroke-miterlimit:4;stroke-dasharray:none;stroke-opacity:1"
       d="M 83.154765,4.5356953 V 38.553558"
       id="path1035"
       inkscape:label="cabelo" />
    <path
       style="opacity:1;fill:none;fill-opacity:1;stroke:#000000;stroke-width:1.34;stroke-miterlimit:4;stroke-dasharray:none;stroke-opacity:1"
       d="m 89.958335,18.142844 -6.80357,20.410714"
       id="path1037"
       inkscape:label="cabelo" />
    <path
       style="opacity:1;fill:none;fill-opacity:1;stroke:#000000;stroke-width:1.34;stroke-miterlimit:4;stroke-dasharray:none;stroke-opacity:1"
       d="m 78.619055,14.36308 4.53571,24.190478"
       id="path1039"
       inkscape:label="cabelo" />
    <path
       style="opacity:1;fill:none;fill-opacity:1;stroke:#000000;stroke-width:1.34;stroke-miterlimit:4;stroke-dasharray:none;stroke-opacity:1"
       d="m 74.839275,22.678558 8.31549,15.875"
       id="path1041"
       inkscape:label="cabelo" />
  </g>
</svg>
