<?xml version="1.0" encoding="UTF-8" standalone="no"?>
<svg
   xmlns:dc="http://purl.org/dc/elements/1.1/"
   xmlns:cc="http://creativecommons.org/ns#"
   xmlns:rdf="http://www.w3.org/1999/02/22-rdf-syntax-ns#"
   xmlns:svg="http://www.w3.org/2000/svg"
   xmlns="http://www.w3.org/2000/svg"
   xmlns:sodipodi="http://sodipodi.sourceforge.net/DTD/sodipodi-0.dtd"
   xmlns:inkscape="http://www.inkscape.org/namespaces/inkscape"
   width="210mm"
   height="297mm"
   viewBox="0 0 210 297"
   version="1.1"
   id="svg945"
   inkscape:version="1.0.2-2 (e86c870879, 2021-01-15)"
   sodipodi:docname="desenho2.svg"
   inkscape:export-filename="desenho2.png"
   inkscape:export-xdpi="96"
   inkscape:export-ydpi="96">
  <defs
     id="defs939" />
  <sodipodi:namedview
     id="base"
     pagecolor="#ffffff"
     bordercolor="#666666"
     borderopacity="1.0"
     inkscape:pageopacity="0.0"
     inkscape:pageshadow="2"
     inkscape:zoom="0.37355556"
     inkscape:cx="-174.04993"
     inkscape:cy="543.85955"
     inkscape:document-units="mm"
     inkscape:current-layer="layer1"
     inkscape:document-rotation="0"
     showgrid="false"
     inkscape:window-width="1920"
     inkscape:window-height="1001"
     inkscape:window-x="-9"
     inkscape:window-y="-9"
     inkscape:window-maximized="1" />
  <metadata
     id="metadata942">
    <rdf:RDF>
      <cc:Work
         rdf:about="">
        <dc:format>image/svg+xml</dc:format>
        <dc:type
           rdf:resource="http://purl.org/dc/dcmitype/StillImage" />
        <dc:title></dc:title>
      </cc:Work>
    </rdf:RDF>
  </metadata>
  <g
     inkscape:label="Layer 1"
     id="layer1"
     style="display:inline">
    <ellipse
       style="opacity:1;fill:#80d8e2;fill-opacity:1;stroke:#000000;stroke-width:1.4053;stroke-opacity:1"
       id="path1605"
       cx="73.307343"
       cy="217.62019"
       rx="9.2550344"
       ry="9.432106"
       inkscape:label="pé esquerdo" />
    <ellipse
       style="opacity:1;fill:#80d8e2;fill-opacity:1;stroke:#000000;stroke-width:1.40484;stroke-opacity:1"
       id="ellipse1609"
       cx="-148.03133"
       cy="216.20364"
       rx="9.6094103"
       ry="9.0781994"
       inkscape:label="pé direito"
       transform="scale(-1,1)" />
    <path
       style="opacity:1;fill:#a0828c;fill-opacity:1;stroke:#000000;stroke-width:1.5;stroke-opacity:1"
       d="m 64.612882,90.427672 c -4.079275,-0.16157 -8.492813,0.45681 -13.280321,1.94778 -5.446111,3.642663 -4.85847,2.210943 -9.20769,8.499408 -1.275973,2.64694 -2.645908,5.2704 -3.010205,8.14526 -0.501337,1.35827 -0.854681,3.01253 -0.885355,5.31213 l 1.062426,5.13506 c 2.881895,5.10265 6.178553,8.23517 10.004507,8.85354 1.545791,2.04033 4.404635,1.55674 5.4892,2.21339 2.361839,2.29925 3.868373,0.43571 7.171373,-0.0885 v 0 l 2.478993,-7.43698 5.843336,-5.4892 v 0 c 3.87554,5.60479 -12.705852,0.6126 -15.405166,-9.03062 0,0 -0.422529,-2.18736 1.239497,-6.55163 1.150688,-1.64816 2.661223,-3.264135 3.807024,-4.161165 l 2.92167,-2.47899 c 1.05345,-0.52223 1.653376,-1.210693 2.478993,-1.505103 1.25853,-1.39357 3.05087,-2.47272 -0.708282,-3.36435 z"
       id="path1586"
       sodipodi:nodetypes="ccccccccccccccccccc"
       inkscape:label="orelha esquerda" />
    <path
       style="opacity:1;fill:#a18a92;fill-opacity:1;stroke:#000000;stroke-width:1.5;stroke-opacity:1"
       d="m 154.36917,92.173238 c 4.07927,-0.16157 8.49281,0.45681 13.28032,1.94778 5.44611,3.642672 4.85847,2.210942 9.20769,8.499412 1.27597,2.64694 2.64591,5.2704 3.0102,8.14526 0.50134,1.35827 0.85468,3.01253 0.88536,5.31213 l -1.06243,5.13506 c -2.88189,5.10265 -6.17855,8.23517 -10.00451,8.85354 -1.54579,2.04033 -4.40463,1.55674 -5.4892,2.21339 -2.36183,2.29925 -3.86837,0.43571 -7.17137,-0.0885 v 0 l -2.47899,-7.43698 -5.84334,-5.4892 v 0 c -3.87554,5.60479 12.70585,0.6126 15.40517,-9.03062 0,0 0.42253,-2.18736 -1.2395,-6.55163 -1.15069,-1.64816 -2.66122,-3.26413 -3.80702,-4.16116 l -2.92167,-2.47899 c -1.05345,-0.52224 -1.65338,-1.2107 -2.479,-1.50511 -1.25853,-1.393572 -3.05087,-2.472722 0.70829,-3.364352 z"
       id="path1602"
       sodipodi:nodetypes="ccccccccccccccccccc"
       inkscape:label="orelha direita" />
    <path
       id="path961"
       style="opacity:1;fill:#80d8e2;fill-opacity:1;stroke:#000000;stroke-width:1.51867;stroke-opacity:1"
       inkscape:label="corpo"
       d="m 180.54646,156.8641 c 5.3011,48.72285 -30.97296,67.13709 -70.09575,66.62845 -41.962795,-0.54558 -71.440065,-21.82372 -69.519635,-62.81567 1.72209,-36.75815 31.38294,-66.62844 70.095755,-66.62844 38.71282,0 65.53911,26.23054 69.51963,62.81566 z"
       sodipodi:nodetypes="sssss" />
    <ellipse
       style="opacity:1;fill:#000000;fill-opacity:1;stroke:#000000;stroke-width:1.5;stroke-opacity:1"
       id="path1611"
       cx="94.909988"
       cy="146.26059"
       rx="5.6662698"
       ry="6.7286959"
       inkscape:label="olho esquerdo" />
    <ellipse
       style="opacity:1;fill:#000000;fill-opacity:1;stroke:#000000;stroke-width:1.5;stroke-opacity:1"
       id="ellipse1613"
       cx="120.76234"
       cy="146.61473"
       rx="5.6662698"
       ry="6.7286959"
       inkscape:label="olho direito" />
    <path
       style="opacity:1;fill:#1ea0ae;fill-opacity:1;stroke:#000000;stroke-width:1.5;stroke-opacity:1"
       d="m 108.25305,155.286 c -2.43908,0.76667 -3.29522,1.14697 -9.38476,6.02041 -0.53395,1.5201 -4.01806,3.75224 -1.94779,6.19748 0.92941,2.58659 12.96587,1.1972 19.83195,1.2395 4.86174,-0.76673 3.60756,-3.20144 3.54142,-5.31213 -3.8039,-4.60248 -7.76593,-7.78176 -12.04082,-8.14526 z"
       id="path1615"
       sodipodi:nodetypes="cccccc"
       inkscape:label="nariz" />
    <path
       style="opacity:1;fill:#1ea0ae;fill-opacity:1;stroke:#000000;stroke-width:1.5;stroke-opacity:1"
       d="M 102.76385,113.28981 98.16,112.05032 c -7.53324,0.41617 -16.96572,5.2006 -29.2167,16.46759 -1.57348,5.42333 -1.24547,9.73747 2.83313,11.86375 5.80785,-3.49434 10.80498,-8.61014 17.88416,-9.56183 6.49181,-0.8704 9.33046,-0.82751 13.98861,-1.23949 1.64856,-0.97828 3.20351,-13.45589 -0.88535,-16.29053 z"
       id="path1617"
       sodipodi:nodetypes="ccccccc"
       inkscape:label="path1617" />
    <path
       style="opacity:1;fill:#1ea0ae;fill-opacity:1;stroke:#000000;stroke-width:1.5;stroke-opacity:1"
       d="m 116.05959,113.60836 4.60385,-1.23949 c 7.53324,0.41617 16.96572,5.2006 29.2167,16.46759 1.57348,5.42333 1.24547,9.73747 -2.83313,11.86375 -5.80785,-3.49434 -10.80498,-8.61014 -17.88416,-9.56183 -6.49181,-0.8704 -9.33046,-0.82751 -13.98861,-1.23949 -1.64856,-0.97828 -3.20351,-13.45589 0.88535,-16.29053 z"
       id="path1619"
       sodipodi:nodetypes="ccccccc"
       inkscape:label="sobrancelha direita" />
  </g>
</svg>
